<?xml version="1.0" encoding="UTF-8" standalone="no"?>
<!DOCTYPE svg PUBLIC "-//W3C//DTD SVG 1.1//EN" "http://www.w3.org/Graphics/SVG/1.1/DTD/svg11.dtd">
<svg width="100%" height="100%" viewBox="0 0 1023 398" version="1.1" xmlns="http://www.w3.org/2000/svg" xmlns:xlink="http://www.w3.org/1999/xlink" xml:space="preserve" xmlns:serif="http://www.serif.com/" style="fill-rule:evenodd;clip-rule:evenodd;stroke-linejoin:round;stroke-miterlimit:2;">
    <g transform="matrix(1.33333,0,0,1.33333,-383.117,-349.716)">
        <g transform="matrix(1,0,0,1,-57.6468,209.827)">
            <g transform="matrix(400,0,0,400,330.985,348.06)">
                <path d="M0.554,-0.697L0.554,0L0.412,0L0.412,-0.207L0.176,-0.207L0.176,0L0.035,0L0.035,-0.472C0.035,-0.509 0.042,-0.543 0.057,-0.575C0.071,-0.606 0.09,-0.634 0.113,-0.657C0.162,-0.704 0.222,-0.731 0.293,-0.737C0.301,-0.738 0.309,-0.738 0.317,-0.739C0.324,-0.739 0.332,-0.739 0.339,-0.739C0.362,-0.739 0.384,-0.738 0.404,-0.735C0.424,-0.732 0.441,-0.729 0.456,-0.727C0.471,-0.724 0.482,-0.721 0.491,-0.718C0.5,-0.715 0.505,-0.714 0.506,-0.714L0.554,-0.697ZM0.412,-0.348L0.412,-0.591C0.402,-0.593 0.391,-0.595 0.378,-0.596C0.365,-0.597 0.352,-0.598 0.339,-0.598C0.334,-0.598 0.328,-0.598 0.323,-0.598C0.317,-0.597 0.311,-0.597 0.306,-0.596C0.287,-0.595 0.269,-0.59 0.253,-0.583C0.237,-0.576 0.223,-0.567 0.212,-0.556C0.201,-0.545 0.192,-0.532 0.186,-0.519C0.18,-0.505 0.177,-0.489 0.176,-0.472L0.176,-0.348L0.412,-0.348Z" style="fill:rgb(249,32,152);fill-rule:nonzero;"/>
            </g>
            <g transform="matrix(400,0,0,400,566.585,348.06)">
                <path d="M0.176,-0.237C0.176,-0.209 0.186,-0.186 0.205,-0.167C0.224,-0.148 0.247,-0.138 0.275,-0.138L0.275,0C0.242,0 0.211,-0.006 0.182,-0.019C0.153,-0.032 0.127,-0.049 0.106,-0.071C0.084,-0.092 0.067,-0.118 0.054,-0.147C0.041,-0.175 0.035,-0.207 0.035,-0.24L0.035,-0.699C0.051,-0.705 0.071,-0.711 0.094,-0.716C0.117,-0.721 0.144,-0.726 0.176,-0.729L0.176,-0.237Z" style="fill:rgb(65,255,0);fill-rule:nonzero;"/>
            </g>
            <g transform="matrix(400,0,0,400,690.585,348.06)">
                <path d="M0.462,-0.445C0.485,-0.421 0.504,-0.393 0.518,-0.361C0.531,-0.329 0.538,-0.295 0.538,-0.258C0.538,-0.221 0.531,-0.187 0.518,-0.155C0.504,-0.123 0.485,-0.095 0.461,-0.071C0.437,-0.047 0.409,-0.028 0.377,-0.014C0.345,0 0.311,0.007 0.274,0.007C0.237,0.007 0.203,0 0.171,-0.014C0.139,-0.028 0.111,-0.047 0.087,-0.071C0.063,-0.095 0.044,-0.123 0.031,-0.155C0.017,-0.187 0.01,-0.221 0.01,-0.258C0.01,-0.295 0.017,-0.329 0.031,-0.362C0.045,-0.394 0.064,-0.422 0.088,-0.446C0.112,-0.47 0.14,-0.489 0.172,-0.503C0.204,-0.516 0.238,-0.523 0.275,-0.523C0.312,-0.523 0.346,-0.516 0.379,-0.502C0.411,-0.488 0.439,-0.469 0.462,-0.445ZM0.274,-0.134C0.291,-0.134 0.307,-0.137 0.322,-0.144C0.337,-0.15 0.35,-0.159 0.361,-0.17C0.372,-0.181 0.381,-0.195 0.388,-0.21C0.394,-0.225 0.397,-0.241 0.397,-0.258C0.397,-0.275 0.394,-0.292 0.388,-0.307C0.381,-0.322 0.373,-0.335 0.362,-0.347C0.351,-0.358 0.338,-0.366 0.323,-0.373C0.308,-0.379 0.292,-0.382 0.275,-0.382C0.258,-0.382 0.242,-0.379 0.227,-0.373C0.212,-0.366 0.199,-0.357 0.188,-0.346C0.177,-0.335 0.168,-0.322 0.161,-0.307C0.154,-0.292 0.151,-0.275 0.151,-0.258C0.151,-0.241 0.154,-0.225 0.161,-0.21C0.167,-0.195 0.176,-0.181 0.187,-0.17C0.198,-0.159 0.211,-0.15 0.226,-0.144C0.241,-0.137 0.257,-0.134 0.274,-0.134Z" style="fill:rgb(65,255,0);fill-rule:nonzero;"/>
            </g>
            <g transform="matrix(400,0,0,400,909.785,348.06)">
                <path d="M0.176,-0.237C0.176,-0.209 0.186,-0.186 0.205,-0.167C0.224,-0.148 0.247,-0.138 0.275,-0.138L0.275,0C0.242,0 0.211,-0.006 0.182,-0.019C0.153,-0.032 0.127,-0.049 0.106,-0.071C0.084,-0.092 0.067,-0.118 0.054,-0.147C0.041,-0.175 0.035,-0.207 0.035,-0.24L0.035,-0.699C0.051,-0.705 0.071,-0.711 0.094,-0.716C0.117,-0.721 0.144,-0.726 0.176,-0.729L0.176,-0.237Z" style="fill:rgb(0,141,255);fill-rule:nonzero;"/>
            </g>
            <g transform="matrix(400,0,0,400,1033.78,348.06)">
                <path d="M0.115,-0.57C0.093,-0.57 0.074,-0.578 0.059,-0.594C0.043,-0.609 0.035,-0.628 0.035,-0.65C0.035,-0.673 0.043,-0.692 0.059,-0.707C0.074,-0.722 0.093,-0.73 0.115,-0.73C0.137,-0.73 0.156,-0.722 0.172,-0.707C0.187,-0.692 0.195,-0.673 0.195,-0.65C0.195,-0.628 0.187,-0.609 0.172,-0.594C0.156,-0.578 0.137,-0.57 0.115,-0.57ZM0.044,-0.49C0.06,-0.496 0.08,-0.502 0.103,-0.508C0.126,-0.513 0.153,-0.517 0.186,-0.52L0.186,0L0.044,0L0.044,-0.49Z" style="fill:rgb(0,141,255);fill-rule:nonzero;"/>
            </g>
        </g>
    </g>
</svg>
