<?xml version="1.0" encoding="UTF-8" standalone="no"?><!DOCTYPE svg PUBLIC "-//W3C//DTD SVG 1.1//EN" "http://www.w3.org/Graphics/SVG/1.1/DTD/svg11.dtd"><svg width="100%" height="100%" viewBox="0 0 1420 608" version="1.1" xmlns="http://www.w3.org/2000/svg" xmlns:xlink="http://www.w3.org/1999/xlink" xml:space="preserve" xmlns:serif="http://www.serif.com/" style="fill-rule:evenodd;clip-rule:evenodd;stroke-linejoin:round;stroke-miterlimit:2;"><g><path d="M357.041,167.038l59.461,382.689l-102.566,15.937l-17.66,-113.654l-170.463,26.486l17.659,113.654l-101.844,15.824l-40.266,-259.152c-3.128,-20.132 -0.867,-39.696 6.785,-58.691c7.651,-18.995 18.909,-36.208 33.772,-51.638c31.595,-31.525 72.658,-52.9 123.189,-64.125c5.722,-1.264 11.337,-2.418 16.846,-3.461c5.509,-1.044 10.913,-1.977 16.209,-2.8c16.854,-2.618 32.618,-4.318 47.291,-5.098c14.674,-0.781 27.435,-1.171 38.285,-1.169c10.85,0.001 19.518,0.247 26.006,0.739c6.487,0.491 10.212,0.662 11.175,0.512l36.121,3.947Zm-72.793,207.556l-20.731,-133.42c-7.393,0.024 -15.722,0.381 -24.985,1.071c-9.262,0.689 -18.709,1.782 -28.34,3.279c-3.852,0.598 -7.811,1.307 -11.875,2.126c-4.065,0.819 -7.995,1.711 -11.79,2.675c-13.851,2.902 -26.242,7.264 -37.173,13.086c-10.931,5.822 -20.035,12.297 -27.311,19.426c-7.219,7.494 -12.413,15.33 -15.581,23.507c-3.168,8.177 -4.253,17.062 -3.256,26.653l10.578,68.083l170.464,-26.486Z" style="fill:#f92098;fill-rule:nonzero;"/><path d="M548.689,395.922c2.389,15.373 11.256,27.21 26.6,35.509c15.345,8.3 33.13,10.879 53.354,7.736l11.773,75.769c-24.077,3.741 -47.129,3.762 -69.156,0.062c-22.028,-3.7 -41.79,-10.283 -59.289,-19.747c-17.498,-9.465 -32.059,-21.447 -43.682,-35.948c-11.623,-14.501 -18.856,-30.902 -21.7,-49.204l-39.157,-252.015c11.045,-5.09 24.646,-10.39 40.804,-15.899c16.158,-5.51 35.652,-10.975 58.481,-16.397l41.972,270.134Z" style="fill:#41ff00;fill-rule:nonzero;"/><path d="M961.437,214.83c18.901,10.559 34.652,23.856 47.253,39.892c12.602,16.036 20.466,34.12 23.594,54.252c3.129,20.132 1.122,39.749 -6.02,58.853c-7.141,19.103 -18.356,36.59 -33.644,52.461c-15.288,15.871 -33.891,29.445 -55.81,40.723c-21.92,11.278 -46.122,18.975 -72.606,23.09c-26.484,4.115 -51.88,4.125 -76.188,0.029c-24.308,-4.095 -46.154,-11.385 -65.536,-21.868c-19.383,-10.484 -35.375,-23.744 -47.977,-39.78c-12.601,-16.036 -20.466,-34.119 -23.594,-54.251c-3.128,-20.132 -1.015,-39.86 6.339,-59.184c7.354,-19.324 18.675,-36.921 33.963,-52.792c15.287,-15.871 33.905,-29.354 55.853,-40.449c21.948,-11.095 46.164,-18.7 72.648,-22.815c26.484,-4.115 52.001,-4.143 76.55,-0.085c24.549,4.058 46.273,11.366 65.175,21.924Zm-109.262,191.855c12.039,-1.871 23.205,-5.387 33.499,-10.547c10.294,-5.161 19.051,-11.489 26.27,-18.983c7.22,-7.495 12.477,-15.715 15.772,-24.662c3.295,-8.946 4.203,-18.178 2.724,-27.695c-1.479,-9.517 -5.159,-18.129 -11.042,-25.837c-5.883,-7.708 -13.266,-13.965 -22.15,-18.77c-8.883,-4.805 -19.013,-8.104 -30.387,-9.898c-11.375,-1.794 -23.082,-1.756 -35.12,0.115c-12.52,1.945 -23.927,5.498 -34.221,10.659c-10.295,5.16 -18.931,11.469 -25.909,18.926c-6.979,7.458 -12.236,15.678 -15.772,24.662c-3.535,8.984 -4.564,18.234 -3.085,27.751c1.479,9.517 5.145,18.038 10.999,25.563c5.854,7.525 13.358,13.763 22.511,18.714c9.153,4.95 19.296,8.341 30.43,10.173c11.134,1.831 22.961,1.774 35.481,-0.171Z" style="fill:#41ff00;fill-rule:nonzero;"/><path d="M1168.42,299.629c2.389,15.374 11.255,27.21 26.6,35.51c15.345,8.299 33.129,10.878 53.354,7.736l11.772,75.769c-24.076,3.741 -47.128,3.761 -69.156,0.061c-22.027,-3.7 -41.79,-10.282 -59.288,-19.747c-17.498,-9.464 -32.059,-21.447 -43.682,-35.948c-11.623,-14.501 -18.857,-30.902 -21.7,-49.204l-39.158,-252.014c11.045,-5.09 24.647,-10.39 40.805,-15.9c16.158,-5.509 35.651,-10.975 58.481,-16.396l41.972,270.133Z" style="fill:#008dff;fill-rule:nonzero;"/><path d="M1319.87,88.85c-15.891,2.469 -30.162,0.282 -42.815,-6.562c-12.653,-6.843 -19.917,-16.305 -21.794,-28.384c-1.934,-12.445 2.103,-23.756 12.111,-33.933c10.008,-10.177 22.958,-16.5 38.848,-18.969c15.891,-2.469 30.148,-0.374 42.772,6.287c12.625,6.66 19.903,16.213 21.837,28.658c1.877,12.08 -2.174,23.299 -12.154,33.659c-9.979,10.36 -22.914,16.775 -38.805,19.244Zm-44.459,51.892c11.045,-5.09 24.632,-10.481 40.762,-16.174c16.129,-5.692 35.878,-11.103 59.246,-16.234l44.361,285.507l-102.567,15.937l-41.802,-269.036Z" style="fill:#008dff;fill-rule:nonzero;"/></g></svg>